<?xml version="1.0" encoding="utf-8"?>
<!-- Generator: Adobe Illustrator 23.0.1, SVG Export Plug-In . SVG Version: 6.00 Build 0)  -->
<svg version="1.1" id="Layer_1" xmlns="http://www.w3.org/2000/svg" xmlns:xlink="http://www.w3.org/1999/xlink" x="0px" y="0px"
	 width="960px" height="233px" viewBox="0 0 960 233" style="enable-background:new 0 0 960 233;" xml:space="preserve">
<style type="text/css">
	.st0{fill:url(#SVGID_1_);}
	.st1{fill:url(#SVGID_2_);}
	.st2{fill:url(#SVGID_3_);}
	.st3{fill:url(#SVGID_4_);}
	.st4{fill:url(#SVGID_5_);}
	.st5{fill:url(#SVGID_6_);}
	.st6{fill:url(#SVGID_7_);}
</style>
<title>dKodder</title>
<g>
	
		<linearGradient id="SVGID_1_" gradientUnits="userSpaceOnUse" x1="28.482" y1="329.7605" x2="701.4333" y2="199.7588" gradientTransform="matrix(1 0 0 1 0 -202)">
		<stop  offset="0" style="stop-color:#27AAE1"/>
		<stop  offset="1" style="stop-color:#66C9D0"/>
	</linearGradient>
	<path class="st0" d="M0.1,139.7c0-9.1,1.6-17.9,5.2-26.4c3.3-8.1,8.1-15.3,14.3-21.5c6.2-6.2,13.7-11.1,21.5-14.7
		c8.5-3.6,17.3-5.5,26.4-5.5c9.4,0,18.9,2.3,27.4,6.5c8.1,4.2,15.6,10.1,21.2,17.6v-85h19.5v196.4h-19.5v-23.8
		c-5.5,7.5-12.7,13.4-21.2,17.6s-17.9,6.5-27.4,6.5c-37.1,0.3-67.4-29.6-67.7-67.1C0.1,140.1,0.1,139.7,0.1,139.7z M19.7,139.7
		c0,6.5,1.3,12.7,3.9,18.6c4.9,11.4,14,20.8,25.7,25.7c5.9,2.6,12.4,3.9,18.6,3.9c6.5,0,12.7-1.3,18.9-3.9
		c5.9-2.3,11.1-5.9,15.3-10.4c4.2-4.6,7.8-9.4,10.4-15.3c2.6-5.9,3.9-12.4,3.9-18.6c0-6.5-1.3-12.7-3.9-18.9
		c-2.3-5.9-5.9-11.1-10.4-15.3c-4.6-4.2-9.8-7.8-15.3-10.1c-5.9-2.6-12.4-3.9-18.9-3.9c-6.5,0-12.7,1.3-18.6,3.9
		c-5.5,2.3-10.7,5.9-15.3,10.1c-4.6,4.2-7.8,9.4-10.4,15.3C21,126.7,19.7,133.2,19.7,139.7z"/>
	
		<linearGradient id="SVGID_2_" gradientUnits="userSpaceOnUse" x1="34.159" y1="359.1467" x2="707.1107" y2="229.145" gradientTransform="matrix(1 0 0 1 0 -202)">
		<stop  offset="0" style="stop-color:#27AAE1"/>
		<stop  offset="1" style="stop-color:#66C9D0"/>
	</linearGradient>
	<path class="st1" d="M228.5,23.8c-5.5,2.6-10.4,6.5-14.3,11.1c-3.9,4.9-7.2,10.1-9.4,16.3c-2.3,6.2-3.9,12.7-4.9,19.2
		c-1,9.1-3.9,18.2-8.5,26.1c-4.6,7.8-11.1,14.7-18.9,19.9c7.5,5.2,14,12.1,18.9,19.9c4.9,7.8,7.8,16.9,8.8,26.1
		c1,6.8,2.6,13.4,4.9,19.5c2,5.9,5.2,11.4,9.1,16.3c3.9,4.6,8.8,8.5,14,11.1c6.2,2.9,13,4.2,20.2,4.2v19.5c-8.8,0-17.6-1.6-25.7-4.9
		c-7.8-3.3-15-7.8-20.8-13.7c-5.9-5.9-10.7-12.7-14.3-20.5c-3.6-8.1-5.9-16.6-6.2-25.4c-0.3-9.4-3.6-18.2-9.4-25.7
		c-5.9-7.5-13.7-13-22.5-16v-20.5c8.8-2.6,16.6-8.1,22.1-15.3c5.9-7.5,9.1-16.6,9.4-26.1c0.7-8.8,2.6-17.3,6.2-25.1
		c3.6-7.8,8.1-14.7,14.3-20.5c5.9-5.9,13-10.7,20.8-14C230.4,1.6,239.2,0,248,0v19.5C241.5,19.9,234.6,21.2,228.5,23.8z"/>
	
		<linearGradient id="SVGID_3_" gradientUnits="userSpaceOnUse" x1="40.637" y1="392.6884" x2="713.5886" y2="262.6868" gradientTransform="matrix(1 0 0 1 0 -202)">
		<stop  offset="0" style="stop-color:#27AAE1"/>
		<stop  offset="1" style="stop-color:#66C9D0"/>
	</linearGradient>
	<path class="st2" d="M305.3,71.7c9.1,0,17.9,1.6,26.4,5.5C348,84,361,97.1,367.9,113.3c7.2,16.9,7.2,35.8,0,52.8
		c-3.6,8.1-8.5,15.3-14.7,21.5c-26.4,26.4-69.4,26.4-95.8,0s-26.4-69.4,0-95.8c6.2-6.2,13.7-11.1,21.5-14.7
		C287.1,73.6,296.2,71.7,305.3,71.7z M305.3,187.6c6.5,0,12.7-1.3,18.9-3.9c5.9-2.3,11.1-5.9,15.3-10.4c4.2-4.6,7.8-9.4,10.4-15.3
		c2.6-5.9,3.9-12.4,3.9-18.6c0-6.5-1.3-12.7-3.9-18.9c-4.9-11.7-14-20.8-25.7-25.7c-5.9-2.6-12.4-3.9-18.9-3.9
		c-6.5,0-12.7,1.3-18.6,3.9c-11.7,4.9-20.8,14.3-25.7,25.7c-2.6,5.9-3.9,12.4-3.9,18.9c0,6.5,1.3,12.7,3.9,18.6
		c4.9,11.4,14,20.8,25.7,25.7C292.3,186.6,298.8,187.6,305.3,187.6z"/>
	
		<linearGradient id="SVGID_4_" gradientUnits="userSpaceOnUse" x1="42.3686" y1="401.6399" x2="715.3201" y2="271.6382" gradientTransform="matrix(1 0 0 1 0 -202)">
		<stop  offset="0" style="stop-color:#27AAE1"/>
		<stop  offset="1" style="stop-color:#66C9D0"/>
	</linearGradient>
	<path class="st3" d="M386.1,139.7c0-9.1,1.6-17.9,5.2-26.4c3.3-8.1,8.1-15.3,14.3-21.5c6.2-6.2,13.7-11.1,21.5-14.7
		c8.5-3.6,17.3-5.5,26.4-5.5c9.4,0,18.9,2.3,27.4,6.5c8.1,4.2,15.6,10.1,21.2,17.6v-85h19.5v196.4H502v-23.8
		c-5.5,7.5-12.7,13.4-21.2,17.6s-17.9,6.5-27.4,6.5c-37.1,0.3-67.4-30-67.7-67.1C386.1,140.1,386.1,139.7,386.1,139.7L386.1,139.7z
		 M405.6,139.7c0,6.5,1.3,12.7,3.9,18.6c4.9,11.4,14,20.8,25.7,25.7c5.9,2.6,12.4,3.9,18.6,3.9c6.5,0,12.7-1.3,18.9-3.9
		c5.9-2.3,11.1-5.9,15.3-10.4c4.2-4.6,7.8-9.4,10.4-15.3c2.6-5.9,3.9-12.4,3.9-18.6c0-6.5-1.3-12.7-3.9-18.9
		c-2.3-5.9-5.9-11.1-10.4-15.3c-4.6-4.2-9.8-7.8-15.3-10.1c-5.9-2.6-12.4-3.9-18.9-3.9s-12.7,1.3-18.6,3.9
		c-5.5,2.3-10.7,5.9-15.3,10.1c-4.6,4.2-7.8,9.4-10.4,15.3C406.9,126.7,405.6,133.2,405.6,139.7L405.6,139.7z"/>
	
		<linearGradient id="SVGID_5_" gradientUnits="userSpaceOnUse" x1="47.8738" y1="430.1496" x2="720.8251" y2="300.1479" gradientTransform="matrix(1 0 0 1 0 -202)">
		<stop  offset="0" style="stop-color:#27AAE1"/>
		<stop  offset="1" style="stop-color:#66C9D0"/>
	</linearGradient>
	<path class="st4" d="M539.2,139.7c0-9.1,1.6-17.9,5.2-26.4c3.3-8.1,8.1-15.3,14.3-21.5c6.2-6.2,13.7-11.1,21.5-14.7
		c8.5-3.6,17.3-5.5,26.4-5.5c9.4,0,18.9,2.3,27.4,6.5c8.1,4.2,15.6,10.1,21.2,17.6v-85h19.5v196.4h-19.5v-23.8
		c-5.5,7.5-12.7,13.4-21.2,17.6s-17.9,6.5-27.4,6.5c-37.1,0.3-67.4-30-67.7-67.1C539.2,140.1,539.2,139.7,539.2,139.7L539.2,139.7z
		 M558.7,139.7c0,6.5,1.3,12.7,3.9,18.6c4.9,11.4,14,20.8,25.7,25.7c5.9,2.6,12.4,3.9,18.6,3.9c6.5,0,12.7-1.3,18.9-3.9
		c5.9-2.3,11.1-5.9,15.3-10.4c4.2-4.6,7.8-9.4,10.4-15.3c2.6-5.9,3.9-12.4,3.9-18.6c0-6.5-1.3-12.7-3.9-18.9
		c-2.3-5.9-5.9-11.1-10.4-15.3c-4.6-4.2-9.8-7.8-15.3-10.1c-5.9-2.6-12.4-3.9-18.9-3.9c-6.5,0-12.7,1.3-18.6,3.9
		c-5.5,2.3-10.7,5.9-15.3,10.1c-4.6,4.2-7.8,9.4-10.4,15.3C560,126.7,558.7,133.2,558.7,139.7L558.7,139.7z"/>
	
		<linearGradient id="SVGID_6_" gradientUnits="userSpaceOnUse" x1="57.0343" y1="477.5564" x2="729.9828" y2="347.5515" gradientTransform="matrix(1 0 0 1 0 -202)">
		<stop  offset="0" style="stop-color:#27AAE1"/>
		<stop  offset="1" style="stop-color:#66C9D0"/>
	</linearGradient>
	<path class="st5" d="M760.7,71.7c9.1,0,17.9,1.6,26.4,5.5c8.1,3.6,15.3,8.5,21.5,14.7c6.2,6.2,11.1,13.7,14.7,21.5
		c3.6,8.1,5.5,17.3,5.5,26.4c0,3.3-0.3,6.2-1.3,9.4H714.7c1,5.5,2.9,10.7,5.5,15.6c2.6,4.6,6.2,8.8,10.1,12.1
		c4.2,3.6,8.8,6.2,13.7,8.1c5.2,2,10.7,2.9,16.3,2.9c6.2,0,12.7-1.3,18.6-3.6c5.9-2.3,11.1-5.9,15.6-10.4l14,14
		c-6.2,6.2-13.7,11.1-21.8,14.3c-25.4,10.7-54.7,4.9-74.3-14.7c-26.4-26.7-26.4-69.4,0-95.8c6.2-6.2,13.7-11.1,21.5-14.7
		C742.4,73.6,751.5,71.7,760.7,71.7z M760.7,91.2c-5.5,0-11.1,1-16.3,2.9c-5.2,2-9.8,4.6-14,8.1c-4.2,3.6-7.5,7.5-10.4,12.1
		c-2.9,4.6-4.6,9.8-5.5,15h91.5c-1-5.2-2.9-10.4-5.5-15c-2.6-4.6-6.2-8.8-10.1-12.1c-4.2-3.6-8.8-6.2-14-8.1
		C771.4,92.2,766.2,91.2,760.7,91.2L760.7,91.2z"/>
	
		<linearGradient id="SVGID_7_" gradientUnits="userSpaceOnUse" x1="60.3565" y1="494.7501" x2="733.3042" y2="364.7488" gradientTransform="matrix(1 0 0 1 0 -202)">
		<stop  offset="0" style="stop-color:#27AAE1"/>
		<stop  offset="1" style="stop-color:#66C9D0"/>
	</linearGradient>
	<path class="st6" d="M912.1,71.7c9.1,0,18.2,1.6,26.4,5.2s15.3,8.5,21.5,14.7c-2.3,2.3-4.6,4.9-7.2,7.5s-4.9,4.6-6.8,6.2
		c-4.6-4.6-9.8-7.8-15.3-10.4c-5.9-2.6-12.4-3.6-18.6-3.6c-6.5,0-12.7,1.3-18.6,3.9c-11.4,4.9-20.8,14-25.7,25.7
		c-2.6,5.9-3.9,12.4-3.9,18.6v67.7h-19.5V71.7h19.5v23.8c5.5-7.2,12.7-13,20.8-17.3C893.2,73.9,902.7,71.7,912.1,71.7z"/>
</g>
</svg>
