<?xml version="1.0" encoding="utf-8"?>
<!-- Generator: Adobe Illustrator 23.0.1, SVG Export Plug-In . SVG Version: 6.00 Build 0)  -->
<svg version="1.1" id="Layer_1" xmlns="http://www.w3.org/2000/svg" xmlns:xlink="http://www.w3.org/1999/xlink" x="0px" y="0px"
	 width="640px" height="599.8px" viewBox="0 0 640 599.8" style="enable-background:new 0 0 640 599.8;" xml:space="preserve">
<style type="text/css">
	.st0{fill:url(#SVGID_1_);}
	.st1{fill:url(#SVGID_2_);}
</style>
<title>dKodder</title>
<g>
	
		<linearGradient id="SVGID_1_" gradientUnits="userSpaceOnUse" x1="72.045" y1="536.575" x2="564.6711" y2="428.9424" gradientTransform="matrix(1 0 0 1 0 -202)">
		<stop  offset="0" style="stop-color:#27AAE1"/>
		<stop  offset="1" style="stop-color:#66C9D0"/>
	</linearGradient>
	<path class="st0" d="M0,358.9c0-23.2,4.6-46.4,13.7-67.9c8.7-20.7,21.5-39.3,37.3-55.5c16.1-16.1,34.8-28.6,55.9-37.7
		c21.5-9.1,44.7-14.1,68.3-14.1c24.4,0,48.4,5.4,70.4,16.6c21.5,10.8,40.2,26.1,54.6,45.1V25.7h50.5v507.1h-50.5v-61.7
		c-14.5,19-33.1,34.4-54.6,45.1c-21.9,11.2-46,16.6-70.4,16.6c-96,0.4-174.3-77-174.7-173C0,360.2,0,359.7,0,358.9L0,358.9z
		 M50.5,358.9c0,16.6,3.3,33.1,9.9,48c12.8,29.8,36.4,53.4,66.2,66.2c15.3,6.6,31.5,9.9,48,9.9s33.1-3.3,48.4-9.9
		c14.9-6.2,28.6-15.3,39.7-26.9c11.2-11.2,20.3-24.8,26.9-39.3c6.6-15.3,9.9-31.5,9.9-48s-3.3-33.1-9.9-48.4
		c-6.2-14.9-15.3-28.2-26.9-39.3s-25.3-20.3-39.7-26.5c-15.3-6.6-31.9-9.9-48.4-9.9s-33.1,3.3-48,9.9c-14.5,6.2-28.2,15.3-39.3,26.5
		c-11.6,11.2-20.7,24.8-26.9,39.3C53.8,325.8,50.5,342.4,50.5,358.9L50.5,358.9z"/>
	
		<linearGradient id="SVGID_2_" gradientUnits="userSpaceOnUse" x1="90.2753" y1="620.0139" x2="582.9016" y2="512.3813" gradientTransform="matrix(1 0 0 1 0 -202)">
		<stop  offset="0" style="stop-color:#27AAE1"/>
		<stop  offset="1" style="stop-color:#66C9D0"/>
	</linearGradient>
	<path class="st1" d="M589.5,60.4C575,67.1,562.6,77,552.2,89c-10.3,12.4-18.6,26.5-24,41.8c-5.8,16.1-9.9,33.1-12.4,50.1
		c-2.5,24-10.3,46.8-22.4,67.5c-12,20.3-28.6,38.1-48.4,50.9c19.5,13.7,36,31,48.4,51.3c12.4,20.7,20.3,43.5,22.8,67.1
		c2.5,17.4,6.6,34.4,12.4,50.9c5.4,14.9,13.2,29.4,23.2,41.8c9.9,12,22.4,21.9,36.4,28.6c16.1,7.5,33.9,10.8,51.7,10.3v50.5
		c-22.8,0-45.1-4.1-66.2-12.8c-19.9-8.3-38.5-20.3-53.8-35.2c-15.3-15.3-27.7-33.1-36.8-52.6c-9.5-20.7-14.9-42.6-16.1-65.4
		c-0.8-24-9.5-47.6-24-66.6c-14.9-19-35.2-33.1-58-41v-52.6c23.2-6.6,43.1-20.7,57.5-39.7c14.9-19.5,23.2-42.6,24.4-67.1
		c1.2-22.4,7-44.7,16.1-65c9.1-19.9,21.5-37.7,36.8-53c15.7-15.3,33.9-27.3,53.8-35.6C594.9,4.6,617.2,0,640,0v50.5
		C623,49.3,605.6,53,589.5,60.4z"/>
</g>
</svg>
