<?xml version="1.0" encoding="utf-8"?>
<!-- Generator: Adobe Illustrator 23.0.1, SVG Export Plug-In . SVG Version: 6.00 Build 0)  -->
<svg version="1.1" id="Layer_1" xmlns="http://www.w3.org/2000/svg" xmlns:xlink="http://www.w3.org/1999/xlink" x="0px" y="0px"
	 width="640px" height="640px" viewBox="0 0 640 640" style="enable-background:new 0 0 640 640;" xml:space="preserve">
<style type="text/css">
	.st0{fill:url(#SVGID_1_);}
	.st1{fill:url(#SVGID_2_);}
</style>
<title>dKodder</title>
<g>
	
		<linearGradient id="SVGID_1_" gradientUnits="userSpaceOnUse" x1="-1057.3057" y1="585.9621" x2="2445.1138" y2="-90.6459" gradientTransform="matrix(1 0 0 -1 0 639.89)">
		<stop  offset="0" style="stop-color:#27AAE1"/>
		<stop  offset="1" style="stop-color:#66C9D0"/>
	</linearGradient>
	<path class="st0" d="M512,0H128C57.6,0,0,57.6,0,128v384c0,70.4,57.6,128,128,128h384c70.4,0,128-57.6,128-128V128
		C640,57.6,582.4,0,512,0z M337.3,478.1h-38.4v-46.7c-10.9,14.7-25,26.2-41.6,34.6c-16.6,8.3-35.2,12.8-53.8,12.8
		c-73,0.6-132.5-58.9-133.1-131.8c0-0.6,0-0.6,0-1.3l0,0c0-17.9,3.2-35.2,10.2-51.8c6.4-16,16-30.1,28.2-42.2
		c12.2-12.2,26.9-21.8,42.2-28.8c16.6-7,33.9-10.9,51.8-10.9c18.6,0,37.1,4.5,53.8,12.8c16,8.3,30.7,19.8,41.6,34.6v-167h38.4v385.9
		H337.3z M558.7,110.1c-13.4,0-26.9,2.6-39,7.7c-10.9,5.1-20.5,12.8-28.2,21.8c-7.7,9.6-14.1,19.8-18.6,32
		c-4.5,12.2-7.7,25-9.6,37.8c-1.9,17.9-7.7,35.8-16.6,51.2s-21.8,28.8-37.1,39c14.7,10.2,27.5,23.7,37.1,39
		c9.6,15.4,15.4,33.3,17.3,51.2c1.9,13.4,5.1,26.2,9.6,38.4c3.8,11.5,10.2,22.4,17.9,32c7.7,9,17.3,16.6,27.5,21.8
		c12.2,5.8,25.6,8.3,39.7,8.3v38.4c-17.3,0-34.6-3.2-50.6-9.6c-15.4-6.4-29.4-15.4-41-26.9c-11.5-11.5-21.1-25-28.2-40.3
		c-7-16-11.5-32.6-12.2-49.9c-0.6-18.6-7-35.8-18.6-50.6c-11.5-14.7-26.9-25.6-44.2-31.4v-40.3c17.3-5.1,32.6-16,43.5-30.1
		c11.5-14.7,17.9-32.6,18.6-51.2c1.3-17.3,5.1-33.9,12.2-49.3c7-15.4,16-28.8,28.2-40.3c11.5-11.5,25.6-21.1,41-27.5
		c16-7,33.3-10.2,50.6-10.2v39H558.7z"/>
	
		<linearGradient id="SVGID_2_" gradientUnits="userSpaceOnUse" x1="-165.8924" y1="365.8304" x2="775.3279" y2="184.0025" gradientTransform="matrix(1 0 0 -1 0 639.89)">
		<stop  offset="0" style="stop-color:#27AAE1"/>
		<stop  offset="1" style="stop-color:#66C9D0"/>
	</linearGradient>
	<path class="st1" d="M271.4,278.4c-9-8.3-19.2-15.4-30.1-19.8c-11.5-5.1-24.3-7.7-37.1-7.7s-25,2.6-36.5,7.7
		c-10.9,4.5-21.1,11.5-30.1,19.8c-9,8.3-15.4,18.6-20.5,30.1c-5.1,11.5-7.7,24.3-7.7,37.1l0,0c0,12.8,2.6,25,7.7,36.5
		c9.6,22.4,27.5,41,50.6,50.6c11.5,5.1,24.3,7.7,36.5,7.7c12.8,0,25-2.6,37.1-7.7c11.5-4.5,21.8-11.5,30.1-20.5
		c8.3-9,15.4-18.6,20.5-30.1c5.1-11.5,7.7-24.3,7.7-36.5c0-12.8-2.6-25-7.7-37.1C286.7,297,280.3,286.7,271.4,278.4z"/>
</g>
</svg>
